<svg width="81" height="81" viewBox="0 0 81 81" fill="none" xmlns="http://www.w3.org/2000/svg">
<path d="M81 80.4062C81 80.9059 80.9063 80.9996 80.4066 80.9996L81 80.4062Z" fill="#F5F6F6"/>
<path d="M34.8264 71.8609C15.443 71.6735 2.01688 56.4437 1.99606 37.0708C1.97524 17.6874 15.3909 2.32227 34.8368 2.32227C54.241 2.32227 69.5748 17.6978 69.5644 37.0708C69.5644 56.4645 54.1993 71.6527 34.8264 71.8505V71.8609Z" fill="#0A7F80"/>
<path d="M11.4718 57.4523C8.47371 54.6104 6.28761 51.1959 4.71571 47.4067C-0.895266 33.9362 2.86273 18.8001 14.1263 9.52479C19.6228 4.99645 25.9833 2.56052 33.1141 2.21699C41.39 1.82141 48.7603 4.27816 55.2561 9.39987C55.7246 9.77463 56.141 10.2118 56.5782 10.6178C57.3693 11.6484 58.1917 12.6478 58.8788 13.7512C61.5125 18.0193 63.1573 22.6414 63.6674 27.6277C64.3336 34.2068 63.1469 40.4632 60.0551 46.3449C57.588 51.0398 54.1527 54.881 49.8533 57.952C46.6471 60.2318 43.0973 61.7933 39.2976 62.8238C35.8415 63.7607 32.323 64.0418 28.7836 63.8232C25.036 63.6046 21.4133 62.7302 17.978 61.1687C15.9377 60.2422 13.9389 59.2428 12.1172 57.9207C11.8986 57.7646 11.732 57.5564 11.4822 57.4523H11.4718Z" fill="#0DB1B2"/>
<path d="M13.7143 60.0988C14.5783 60.307 15.1821 60.9628 15.9316 61.3792C17.2953 62.1288 18.6486 62.8679 20.054 63.5445C22.3442 64.6376 24.7697 65.2934 27.2369 65.7931C30.1621 66.3968 33.1289 66.4073 36.1166 66.1886C38.209 66.0325 40.2493 65.6265 42.248 65.0852C44.0906 64.5855 45.8395 63.8152 47.5779 63.0032C49.764 61.9726 51.7419 60.6609 53.6261 59.1827C55.6144 57.6108 57.3425 55.8099 58.9248 53.832C61.4961 50.6361 63.3178 47.0239 64.515 43.1305C65.2228 40.8299 65.6705 38.4461 65.785 36.0101C65.837 34.9795 65.9515 33.949 65.8995 32.9184C65.7433 30.1181 65.3998 27.3594 64.567 24.6528C63.9632 22.6958 63.2554 20.7907 62.3601 18.9794C61.4753 17.1785 60.403 15.4713 59.1018 13.9202C58.9456 13.7328 58.7999 13.5454 58.8311 13.2852C60.7049 14.8154 62.2456 16.6684 63.6405 18.6255C66.7531 22.9977 68.6581 27.8799 69.3348 33.1994C70.0947 39.1748 69.3452 44.9835 66.8676 50.4904C63.1096 58.8496 56.9677 64.8666 48.317 67.9479C37.0014 71.9766 26.4457 70.2485 16.8373 63.0032C15.713 62.1496 14.6096 61.2543 13.7351 60.13L13.7143 60.0988Z" fill="#0A6A6B"/>
<path d="M18 35.5L28 44.5L47.5 25" stroke="#0A7F80" stroke-width="6" stroke-linecap="round" stroke-linejoin="round"/>
</svg>
