<svg width="462" height="187" viewBox="0 0 462 187" fill="none" xmlns="http://www.w3.org/2000/svg">
<path d="M245.387 7.98047C235.196 -2.02518 260.036 -3.27584 274.685 7.98047C284.509 15.5298 286.962 21.8484 286.998 25.168C311.129 16.9988 336.279 11.458 357.5 12.8271C407.099 16.0271 418.833 33.4936 418.5 41.8271C430.666 39.3272 455.599 35.3276 458 39.3271C461 44.3271 472 53.1201 426 74.1201C389.2 90.9201 325.834 104.952 309.5 109.119C311.333 114.786 308.5 128.619 294 139.827C256.694 168.663 229.5 174.327 241.5 149.327C251.1 129.327 255.167 122.66 256 121.827C235 133.16 172 151.927 88.0001 136.327C90.3334 144.327 93.5999 165.527 88.0001 186.327C86.1666 174.16 78.0999 147.827 60.5001 139.827C42.9 131.827 12.8334 126.494 6.10352e-05 124.827C15.5001 120.327 50.3 113.427 65.5001 121.827C80.7001 130.227 82.1667 129.994 81.0001 128.827C103.333 120.827 159.9 96.227 207.5 61.8271C218.122 55.43 234.215 46.8216 252.78 38.5938C253.291 29.2707 252.31 14.7777 245.387 7.98047Z" fill="url(#paint0_linear_34_4330)"/>
<path d="M240 159.119C279.2 151.519 302.334 122.286 309 108.619C316.001 128.12 279.5 153.119 259 161.119C242.6 167.519 239.5 162.452 240 159.119Z" fill="#B2B0B0"/>
<ellipse cx="392.811" cy="46.7821" rx="9.13799" ry="9.51874" transform="rotate(-4.20488 392.811 46.7821)" fill="black"/>
<ellipse cx="392.811" cy="46.7821" rx="9.13799" ry="9.51874" transform="rotate(-4.20488 392.811 46.7821)" fill="#5F5F5F"/>
<circle cx="390.098" cy="46.219" r="3.42675" transform="rotate(-4.20488 390.098 46.219)" fill="black"/>
<circle cx="390.098" cy="46.219" r="3.42675" transform="rotate(-4.20488 390.098 46.219)" fill="white"/>
<circle cx="1.14201" cy="1.14201" r="1.14201" transform="matrix(-0.997308 0.0733231 0.0733231 0.997308 396.748 48.4023)" fill="black"/>
<circle cx="1.14201" cy="1.14201" r="1.14201" transform="matrix(-0.997308 0.0733231 0.0733231 0.997308 396.748 48.4023)" fill="white"/>
<defs>
<linearGradient id="paint0_linear_34_4330" x1="186.21" y1="61.6191" x2="200.069" y2="136.102" gradientUnits="userSpaceOnUse">
<stop stop-color="#E9FFF5"/>
<stop offset="1" stop-color="#C0C0C0"/>
</linearGradient>
</defs>
</svg>
