<svg width="792" height="72" viewBox="0 0 792 72" fill="none" xmlns="http://www.w3.org/2000/svg">
<path d="M255 64L247 51.5L543 6.5L552.5 21L255 64Z" fill="#112C55"/>
<rect x="251" y="11" width="304" height="61" rx="20" fill="#0D4FB2"/>
<rect x="244" width="304" height="61" rx="20" fill="#D87645"/>
<path d="M371.253 25.62C372.213 25.62 372.693 26.052 372.693 26.916C372.693 28.092 372.621 28.896 372.477 29.328C372.333 29.76 371.961 29.976 371.361 29.976H364.305V37.644H372.621C373.197 37.668 373.593 37.788 373.809 38.004C374.025 38.196 374.133 38.496 374.133 38.904C374.133 40.08 374.025 40.896 373.809 41.352C373.593 41.784 373.161 42 372.513 42H359.841L359.265 41.424V14.928H372.045C373.077 14.952 373.593 15.336 373.593 16.08C373.569 16.728 373.533 17.244 373.485 17.628C373.437 17.988 373.281 18.348 373.017 18.708C372.777 19.068 372.417 19.248 371.937 19.248H363.909L364.305 25.62H371.253ZM385.919 23.568C387.695 23.568 388.991 24.12 389.807 25.224C390.647 26.328 391.067 28.272 391.067 31.056V42C391.067 42.144 391.055 42.24 391.031 42.288C390.911 42.48 390.443 42.576 389.627 42.576C388.835 42.576 388.019 42.516 387.179 42.396C386.339 42.276 385.919 42.144 385.919 42L385.883 31.056C385.883 28.368 385.691 27.024 385.307 27.024C384.443 27.024 383.291 27.456 381.851 28.32V42C381.851 42.144 381.839 42.24 381.815 42.288C381.695 42.48 381.227 42.576 380.411 42.576C379.619 42.576 378.791 42.516 377.927 42.396C377.087 42.276 376.667 42.144 376.667 42V24.144C376.667 23.76 377.147 23.568 378.107 23.568C379.619 23.568 380.483 23.76 380.699 24.144C380.699 24.192 380.711 24.216 380.735 24.216L381.419 25.584C383.435 24.24 384.935 23.568 385.919 23.568ZM395.973 27.024H393.093C392.805 27.024 392.649 26.964 392.625 26.844C392.577 26.7 392.553 26.544 392.553 26.376C392.553 25.344 392.733 24.792 393.093 24.72L395.973 24.144L397.989 20.076C398.277 19.716 398.829 19.536 399.645 19.536C399.861 19.536 400.065 19.968 400.257 20.832C400.449 21.696 400.653 22.8 400.869 24.144H404.325C404.709 24.144 404.901 24.624 404.901 25.584C404.901 26.544 404.709 27.024 404.325 27.024H400.833V38.472L401.409 42.54V42.576C401.433 42.72 401.433 42.816 401.409 42.864C401.289 43.056 400.689 43.152 399.609 43.152C398.529 43.152 397.881 42.936 397.665 42.504L395.973 39.084V27.024ZM412.926 42.576C410.358 42.576 408.57 41.88 407.562 40.488C406.578 39.096 406.086 36.6 406.086 33C406.086 30.408 406.314 28.44 406.77 27.096C407.226 25.728 407.91 24.804 408.822 24.324C409.758 23.82 411.126 23.568 412.926 23.568C414.726 23.568 416.082 23.82 416.994 24.324C417.93 24.828 418.614 25.764 419.046 27.132C419.478 28.5 419.694 30.444 419.694 32.964C419.694 33.108 419.694 33.252 419.694 33.396C419.694 33.54 419.406 33.672 418.83 33.792C418.278 33.912 417.606 33.972 416.814 33.972H411.27C411.318 36.78 411.522 38.376 411.882 38.76C412.098 38.952 412.446 39.048 412.926 39.048C416.07 39.048 418.218 38.892 419.37 38.58C419.418 38.556 419.454 38.544 419.478 38.544C419.646 38.496 419.778 38.592 419.874 38.832C419.994 39.072 420.054 39.636 420.054 40.524C420.054 41.412 419.862 41.904 419.478 42C418.494 42.384 416.31 42.576 412.926 42.576ZM411.27 28.284V31.092H414.906C414.81 28.308 414.534 26.916 414.078 26.916C413.262 26.916 412.59 27.036 412.062 27.276C411.534 27.516 411.27 27.852 411.27 28.284ZM426.934 25.584C428.902 24.24 430.198 23.568 430.822 23.568C431.47 23.568 432.046 23.688 432.55 23.928C433.078 24.168 433.462 24.408 433.702 24.648L434.026 24.972C433.666 26.508 433.39 27.468 433.198 27.852C433.006 28.236 432.742 28.428 432.406 28.428C432.094 28.428 431.686 28.296 431.182 28.032C430.678 27.768 430.222 27.636 429.814 27.636C429.406 27.636 428.59 28.008 427.366 28.752V42C427.366 42.144 427.342 42.24 427.294 42.288C427.198 42.48 426.754 42.576 425.962 42.576C425.17 42.576 424.426 42.516 423.73 42.396C423.058 42.276 422.722 42.144 422.722 42V24.144C422.722 23.76 423.262 23.568 424.342 23.568C425.422 23.568 426.046 23.76 426.214 24.144V24.216L426.934 25.584Z" fill="white"/>
<path d="M405 70C362.6 69.2 301.333 68 276 67.5C304.833 66.5 376.8 64.6 434 65C505.5 65.5 530 65.5 541.5 58C550.7 52 552.333 37.5 552 31C554.5 55 547 68.5 528 69C509 69.5 458 71 405 70Z" fill="#112C55"/>
<path d="M532.524 15.0443C532.621 19.4893 529.075 23.4 524.873 23.5215C520.063 23.6429 516.177 20.218 516.007 15.7973C515.812 10.8907 519.893 7.12576 523.731 7.00431C528.54 6.85857 532.402 10.4292 532.524 15.0443Z" fill="white"/>
<path d="M536.508 28.8419C534.395 28.8419 532.743 27.1416 532.816 24.9312C532.864 23.3038 534.127 21.2391 536.605 21.3606C538.694 21.4577 540.249 22.9151 540.249 24.9555C540.249 27.1659 538.621 28.8419 536.508 28.8419Z" fill="white"/>
</svg>
