<svg width="344" height="373" viewBox="0 0 344 373" fill="none" xmlns="http://www.w3.org/2000/svg">
<path d="M122.717 190.269C107.339 194.155 49.2644 217.374 74.3273 257.164C89.972 282.001 120.13 280.494 74.0512 338.854" stroke="#E68EC0" stroke-width="28" stroke-linecap="round"/>
<path d="M146.796 189.723C139.283 194.458 110.467 220.995 120.328 260.03C126.483 284.396 140.901 281.31 115.973 342.845" stroke="#E68EC0" stroke-width="28" stroke-linecap="round"/>
<path d="M219.818 352.737C213.333 346.67 190.043 315.171 207.092 278.699C217.735 255.932 231.312 261.684 218.444 196.55" stroke="#E68EC0" stroke-width="28" stroke-linecap="round"/>
<path d="M278.311 358.305C265.702 351.655 219.615 317.986 248.438 282.635C266.43 260.568 292.255 267.485 262.851 200.777" stroke="#E68EC0" stroke-width="28" stroke-linecap="round"/>
<path d="M122.717 190.269C107.339 194.155 49.2644 217.374 74.3273 257.164C89.972 282.001 120.13 280.494 74.0512 338.854" stroke="#DDB2DD" stroke-width="20" stroke-linecap="round"/>
<path d="M146.796 189.723C139.283 194.458 110.467 220.995 120.328 260.03C126.483 284.396 140.901 281.31 115.973 342.845" stroke="#DDB2DD" stroke-width="20" stroke-linecap="round"/>
<path d="M219.818 352.737C213.333 346.67 190.043 315.171 207.092 278.699C217.735 255.932 231.312 261.684 218.444 196.55" stroke="#DDB2DD" stroke-width="20" stroke-linecap="round"/>
<path d="M278.311 358.305C265.702 351.655 219.615 317.986 248.438 282.635C266.43 260.568 292.255 267.485 262.851 200.777" stroke="#DDB2DD" stroke-width="20" stroke-linecap="round"/>
<path d="M179.985 14.1301C55.7577 2.30227 16.7489 112.932 15.2903 175.938C37.1373 212.643 60.4292 188.24 98.2245 191.839C136.02 195.437 145.308 212.33 177.83 214.093C210.352 215.855 204.106 209.924 233.208 204.691C262.309 199.457 315.065 243.108 326.129 201.531C343.096 137.778 289.321 24.5401 179.985 14.1301Z" fill="#EAC5EA" stroke="#E68EC0" stroke-width="4"/>
<path d="M152.366 44.445C160.018 55.5336 153.037 72.8915 136.773 83.215C120.51 93.5384 94.0553 97.4042 86.4034 86.3155C78.7515 75.2269 92.8 53.3828 109.063 43.0594C125.327 32.736 144.714 33.3563 152.366 44.445Z" fill="white" fill-opacity="0.5"/>
<path d="M48.6794 110.313C45.336 105.468 48.3862 97.8832 55.4923 93.3726C62.5984 88.8619 74.1574 87.1728 77.5008 92.0178C80.8442 96.8628 74.7059 106.407 67.5998 110.918C60.4937 115.429 52.0227 115.158 48.6794 110.313Z" fill="white" fill-opacity="0.5"/>
<ellipse cx="174.406" cy="126.466" rx="19.0964" ry="18.36" transform="rotate(5.43882 174.406 126.466)" fill="#01587E"/>
<ellipse cx="233.499" cy="126.466" rx="19.0964" ry="18.36" transform="rotate(5.43882 233.499 126.466)" fill="#01577D"/>
<ellipse cx="175.374" cy="118.78" rx="4.40687" ry="4.23693" transform="rotate(5.43882 175.374 118.78)" fill="white"/>
<ellipse cx="175.374" cy="118.78" rx="4.40687" ry="4.23693" transform="rotate(5.43882 175.374 118.78)" fill="white"/>
<ellipse cx="175.374" cy="118.78" rx="4.40687" ry="4.23693" transform="rotate(5.43882 175.374 118.78)" fill="white"/>
<ellipse cx="234.315" cy="120.364" rx="4.40687" ry="4.23693" transform="rotate(5.43882 234.315 120.364)" fill="white"/>
<ellipse cx="234.315" cy="120.364" rx="4.40687" ry="4.23693" transform="rotate(5.43882 234.315 120.364)" fill="white"/>
<ellipse cx="234.315" cy="120.364" rx="4.40687" ry="4.23693" transform="rotate(5.43882 234.315 120.364)" fill="white"/>
</svg>
