<svg width="28" height="39" viewBox="0 0 28 39" fill="none" xmlns="http://www.w3.org/2000/svg">
<path d="M13.9997 0C6.14857 0 0 6.1358 0 13.678C0 19.3605 2.90524 22.0667 5.20092 24.0423C6.67891 25.3153 7.67354 26.0819 7.67354 27.0264V29.0928C7.67354 29.1458 7.68119 29.1976 7.68813 29.25H7.65959V32.7777C7.66022 36.4991 10.1652 39 14.0454 39C17.7905 39 20.3468 36.4991 20.3468 32.7777V29.25H20.31C20.317 29.1976 20.3265 29.1458 20.3265 29.0928V27.0265C20.3265 25.5883 21.4379 24.7188 23.1227 23.3056C25.4025 21.3934 28 19.0138 28 13.6781C28.0006 6.1358 21.8508 0 13.9997 0ZM13.9515 36.5625C11.5766 36.5625 10.1975 35.1476 10.1975 32.7777L10.1791 31.1525C11.0919 31.4523 12.3352 31.6875 14.0003 31.6875C15.6426 31.6875 16.8884 31.4352 17.8095 31.1251V32.7777C17.8095 35.1829 16.4121 36.5625 13.9515 36.5625H13.9515ZM21.4544 21.4695C19.7309 22.9156 17.7898 24.4104 17.7898 27.0264V28.5663C17.1879 28.8893 16.0778 29.2732 13.9788 29.2732C11.7757 29.2732 10.731 28.8978 10.2115 28.6077V27.0258C10.2115 24.946 8.5191 23.6248 6.89395 22.2263C4.74039 20.3726 2.53796 18.2715 2.53796 13.6774C2.53736 7.48005 7.54858 2.43746 13.9997 2.43746C20.4521 2.43746 25.4633 7.48005 25.4633 13.678C25.4633 17.9065 23.542 19.7176 21.4543 21.4695H21.4544Z" fill="white"/>
</svg>
