<svg width="81" height="81" viewBox="0 0 81 81" fill="none" xmlns="http://www.w3.org/2000/svg">
<path d="M81 80.4062C81 80.9059 80.9063 80.9996 80.4066 80.9996L81 80.4062Z" fill="#F5F6F6"/>
<path d="M34.8264 71.8609C15.443 71.6735 2.01688 56.4437 1.99606 37.0708C1.97524 17.6874 15.3909 2.32227 34.8368 2.32227C54.241 2.32227 69.5748 17.6978 69.5644 37.0708C69.5644 56.4645 54.1993 71.6527 34.8264 71.8505V71.8609Z" fill="#799F9F"/>
<path d="M11.4718 57.4523C8.47374 54.6104 6.28765 51.1959 4.71574 47.4067C-0.895236 33.9362 2.86276 18.8001 14.1264 9.52479C19.6228 4.99645 25.9833 2.56052 33.1141 2.21699C41.3901 1.82141 48.7603 4.27816 55.2562 9.39987C55.7246 9.77463 56.141 10.2118 56.5782 10.6178C57.3694 11.6484 58.1918 12.6478 58.8788 13.7512C61.5126 18.0193 63.1573 22.6414 63.6674 27.6277C64.3337 34.2068 63.1469 40.4632 60.0552 46.3449C57.588 51.0398 54.1527 54.881 49.8534 57.952C46.6471 60.2318 43.0973 61.7933 39.2977 62.8238C35.8416 63.7607 32.323 64.0418 28.7836 63.8232C25.036 63.6046 21.4133 62.7302 17.978 61.1687C15.9377 60.2422 13.939 59.2428 12.1172 57.9207C11.8986 57.7646 11.7321 57.5564 11.4822 57.4523H11.4718Z" fill="#BCD6D6"/>
<path d="M13.7143 60.0988C14.5783 60.307 15.1821 60.9628 15.9316 61.3792C17.2953 62.1288 18.6486 62.8679 20.054 63.5445C22.3442 64.6376 24.7697 65.2934 27.2369 65.7931C30.1621 66.3968 33.1289 66.4073 36.1166 66.1886C38.209 66.0325 40.2493 65.6265 42.248 65.0852C44.0906 64.5855 45.8395 63.8152 47.5779 63.0032C49.764 61.9726 51.7419 60.6609 53.6261 59.1827C55.6144 57.6108 57.3425 55.8099 58.9248 53.832C61.4961 50.6361 63.3178 47.0239 64.515 43.1305C65.2228 40.8299 65.6705 38.4461 65.785 36.0101C65.837 34.9795 65.9515 33.949 65.8995 32.9184C65.7433 30.1181 65.3998 27.3594 64.567 24.6528C63.9632 22.6958 63.2554 20.7907 62.3601 18.9794C61.4753 17.1785 60.403 15.4713 59.1018 13.9202C58.9456 13.7328 58.7999 13.5454 58.8311 13.2852C60.7049 14.8154 62.2456 16.6684 63.6405 18.6255C66.7531 22.9977 68.6581 27.8799 69.3348 33.1994C70.0947 39.1748 69.3452 44.9835 66.8676 50.4904C63.1096 58.8496 56.9677 64.8666 48.317 67.9479C37.0014 71.9766 26.4457 70.2485 16.8373 63.0032C15.713 62.1496 14.6096 61.2543 13.7351 60.13L13.7143 60.0988Z" fill="#638787"/>
<path d="M46.5 37.1673C46.2745 37.1399 46.0458 37.1641 45.8311 37.2381C45.6163 37.3122 45.4213 37.4341 45.2607 37.5947C45.1001 37.7553 44.9781 37.9503 44.9041 38.1651C44.8301 38.3798 44.8058 38.6085 44.8333 38.834C44.8333 39.9507 43.1666 39.9507 43.1666 38.834V35.0007L46 34.1673C47.2 33.6007 48.0166 32.4673 48.1666 31.1673C48.1666 22.1673 41.8333 16.334 34 16.334C26.1666 16.334 19.8333 22.1673 19.8333 31.1673C19.9333 32.5007 20.7666 33.6673 22 34.1673L24.8333 35.0007V38.834C24.8333 39.055 24.7455 39.267 24.5892 39.4232C24.433 39.5795 24.221 39.6673 24 39.6673C23.779 39.6673 23.567 39.5795 23.4107 39.4232C23.2544 39.267 23.1666 39.055 23.1666 38.834C23.1941 38.6085 23.1699 38.3798 23.0959 38.1651C23.0218 37.9503 22.8999 37.7553 22.7393 37.5947C22.5787 37.4341 22.3836 37.3122 22.1689 37.2381C21.9542 37.1641 21.7254 37.1399 21.5 37.1673C21.2745 37.1399 21.0458 37.1641 20.8311 37.2381C20.6163 37.3122 20.4213 37.4341 20.2607 37.5947C20.1001 37.7553 19.9781 37.9503 19.9041 38.1651C19.8301 38.3798 19.8058 38.6085 19.8333 38.834C19.8082 39.3878 19.8988 39.9408 20.0993 40.4577C20.2998 40.9746 20.6058 41.4441 20.9979 41.8361C21.3899 42.2281 21.8593 42.5342 22.3762 42.7347C22.8931 42.9352 23.4461 43.0258 24 43.0007C26.35 43.1007 28.2666 41.184 28.1666 38.834V35.834H29.8333V45.334C29.8333 46.4507 28.1666 46.4507 28.1666 45.334C28.1941 45.1085 28.1699 44.8798 28.0959 44.6651C28.0218 44.4503 27.8999 44.2553 27.7393 44.0947C27.5787 43.9341 27.3836 43.8122 27.1689 43.7381C26.9542 43.6641 26.7254 43.6399 26.5 43.6673C26.2745 43.6399 26.0458 43.6641 25.8311 43.7381C25.6163 43.8122 25.4213 43.9341 25.2607 44.0947C25.1001 44.2553 24.9781 44.4503 24.9041 44.6651C24.8301 44.8798 24.8058 45.1085 24.8333 45.334C24.7853 45.9009 24.8588 46.4716 25.0489 47.0079C25.239 47.5442 25.5414 48.0337 25.9357 48.4438C26.3301 48.854 26.8074 49.1753 27.3358 49.3863C27.8642 49.5972 28.4316 49.6931 29 49.6673C31.35 49.7673 33.2666 47.8507 33.1666 45.5007V36.334H34.8333V45.5007C34.8082 46.0545 34.8988 46.6075 35.0993 47.1244C35.2998 47.6413 35.6058 48.1107 35.9979 48.5028C36.3899 48.8948 36.8593 49.2008 37.3762 49.4013C37.8931 49.6019 38.4461 49.6924 39 49.6673C41.35 49.7673 43.2666 47.8507 43.1666 45.5007C43.1666 43.284 39.8333 43.284 39.8333 45.5007C39.8333 46.6173 38.1666 46.6173 38.1666 45.5007V36.0007H39.8333V39.0007C39.8333 41.2673 41.7166 43.1007 44 43.0007C46.35 43.1007 48.2666 41.184 48.1666 38.834C48.1941 38.6085 48.1699 38.3798 48.0959 38.1651C48.0218 37.9503 47.8999 37.7553 47.7393 37.5947C47.5787 37.4341 47.3836 37.3122 47.1689 37.2381C46.9542 37.1641 46.7254 37.1399 46.5 37.1673ZM31.6666 20.834C30.4228 21.1062 29.2483 21.6314 28.2161 22.3769C27.1839 23.1223 26.3161 24.0722 25.6666 25.1673C25.3833 25.5007 24.8333 25.6173 24.5 25.334C24.3257 25.1995 24.2108 25.0024 24.1797 24.7845C24.1486 24.5666 24.2037 24.3452 24.3333 24.1673C25.932 21.6578 28.441 19.8657 31.3333 19.1673C31.7833 19.134 32.1833 19.4173 32.3333 19.834C32.4333 20.284 32.1333 20.7507 31.6666 20.834Z" fill="#6A8B8B"/>
</svg>
