<svg width="189" height="189" viewBox="0 0 189 189" fill="none" xmlns="http://www.w3.org/2000/svg">
<g clip-path="url(#clip0_34_4309)">
<path d="M189 187.615C189 188.781 188.781 189 187.615 189L189 187.615Z" fill="#F5F6F6"/>
<path d="M81.2615 167.677C36.0336 167.239 4.70605 131.703 4.65747 86.4997C4.60889 41.2719 35.9122 5.41992 81.2858 5.41992C126.562 5.41992 162.341 41.2962 162.317 86.4997C162.317 131.752 126.465 167.191 81.2615 167.652V167.677Z" fill="#112C55"/>
<path d="M26.7675 134.057C19.772 127.426 14.6711 119.458 11.0033 110.617C-2.08894 79.1857 6.67972 43.8681 32.9614 22.2258C45.7865 11.6597 60.6277 5.97585 77.2663 5.17428C96.5768 4.25126 113.774 9.98368 128.931 21.9343C130.024 22.8088 130.996 23.829 132.016 24.7763C133.862 27.181 135.781 29.5128 137.384 32.0875C143.529 42.0464 147.367 52.8311 148.557 64.466C150.112 79.8173 147.343 94.4155 140.129 108.139C134.372 119.094 126.356 128.057 116.324 135.223C108.843 140.542 100.56 144.186 91.6945 146.59C83.6302 148.776 75.4202 149.432 67.1617 148.922C58.4173 148.412 49.9644 146.372 41.9487 142.728C37.1879 140.566 32.5242 138.235 28.2735 135.15C27.7634 134.785 27.3748 134.3 26.7918 134.057H26.7675Z" fill="#D87645"/>
<path d="M32 140.232C34.0161 140.718 35.4249 142.248 37.1738 143.22C40.3557 144.968 43.5134 146.693 46.7926 148.272C52.1364 150.822 57.7959 152.353 63.5526 153.518C70.3781 154.927 77.3007 154.952 84.2719 154.441C89.1542 154.077 93.9151 153.13 98.5787 151.867C102.878 150.701 106.959 148.903 111.015 147.009C116.116 144.604 120.731 141.544 125.128 138.094C129.767 134.427 133.799 130.224 137.491 125.609C143.491 118.152 147.742 109.724 150.535 100.639C152.187 95.2712 153.231 89.7088 153.498 84.0249C153.62 81.6202 153.887 79.2155 153.765 76.8108C153.401 70.2768 152.6 63.84 150.656 57.5246C149.248 52.9581 147.596 48.513 145.507 44.2866C143.442 40.0844 140.94 36.1009 137.904 32.4817C137.54 32.0445 137.2 31.6072 137.273 31C141.645 34.5706 145.24 38.8942 148.495 43.4607C155.757 53.6625 160.202 65.0545 161.781 77.4667C163.554 91.4091 161.805 104.963 156.024 117.812C147.256 137.317 132.925 151.357 112.74 158.546C86.3366 167.947 61.7066 163.915 39.287 147.009C36.6637 145.017 34.0889 142.928 32.0486 140.305L32 140.232Z" fill="#021B41"/>
<path d="M63.834 80.9105C63.834 71.9232 63.834 62.9359 63.834 53.9486C63.834 52.1512 63.8583 52.1269 65.4371 53.0499C81.177 62.1344 96.9412 71.2431 112.681 80.3032C113.798 80.9348 113.798 81.2505 112.681 81.8821C96.8683 90.9665 81.0798 100.1 65.2914 109.233C64.0769 109.937 63.8097 109.718 63.8097 108.382C63.834 99.2251 63.8097 90.0678 63.8097 80.9105H63.834Z" fill="white"/>
<path d="M125.628 31.2376C125.725 35.6827 122.178 39.5934 117.976 39.7148C113.167 39.8363 109.28 36.4114 109.11 31.9906C108.916 27.0841 112.997 23.3191 116.835 23.1977C121.644 23.0519 125.506 26.6225 125.628 31.2376Z" fill="#FFFFFD"/>
<path d="M129.563 45.6643C127.182 45.6886 125.312 43.794 125.263 41.2435C125.19 38.9603 127.109 36.9928 129.514 36.9199C131.749 36.847 133.935 38.8388 134.008 41.0006C134.08 43.6482 132.21 45.6157 129.587 45.6643H129.563Z" fill="#F8F091"/>
<path d="M129.611 45.0333C127.498 45.0333 125.846 43.333 125.919 41.1226C125.968 39.4952 127.231 37.4305 129.708 37.552C131.797 37.6492 133.352 39.1066 133.352 41.1469C133.352 43.3573 131.724 45.0333 129.611 45.0333Z" fill="#FEFDF6"/>
</g>
<defs>
<clipPath id="clip0_34_4309">
<rect width="189" height="189" fill="white"/>
</clipPath>
</defs>
</svg>
