<svg width="108" height="108" viewBox="0 0 108 108" fill="none" xmlns="http://www.w3.org/2000/svg">
<g clip-path="url(#clip0_40_3345)">
<path d="M108 107.209C108 107.875 107.875 108 107.209 108L108 107.209Z" fill="#F5F6F6"/>
<path d="M46.4351 95.8158C20.5906 95.566 2.68917 75.2596 2.66141 49.429C2.63365 23.5845 20.5212 3.09766 46.449 3.09766C72.3213 3.09766 92.7665 23.5984 92.7526 49.429C92.7526 75.2873 72.2657 95.5382 46.4351 95.8019V95.8158Z" fill="#BC5E2F"/>
<path d="M15.2958 76.6044C11.2983 72.8151 8.38353 68.2625 6.28765 63.2102C-1.19365 45.2495 3.81702 25.0681 18.8351 12.701C26.1638 6.66324 34.6444 3.41533 44.1522 2.95729C55.1868 2.42985 65.0138 5.70552 73.6749 12.5345C74.2995 13.0341 74.8547 13.6171 75.4376 14.1584C76.4925 15.5325 77.589 16.865 78.5051 18.3363C82.0167 24.0271 84.2098 30.1898 84.8899 36.8383C85.7782 45.6104 84.1959 53.9523 80.0735 61.7945C76.784 68.0543 72.2036 73.176 66.4712 77.2706C62.1961 80.3103 57.4631 82.3923 52.3969 83.7664C47.7887 85.0156 43.0973 85.3904 38.3781 85.0989C33.3813 84.8074 28.5511 83.6415 23.9707 81.5595C21.2503 80.3242 18.5853 78.9917 16.1563 77.229C15.8648 77.0208 15.6427 76.7432 15.3096 76.6044H15.2958Z" fill="#D87645"/>
<path d="M18.2857 80.133C19.4377 80.4106 20.2428 81.2851 21.2421 81.8403C23.0604 82.8396 24.8648 83.8251 26.7386 84.7273C29.7922 86.1847 33.0262 87.0592 36.3158 87.7254C40.216 88.5304 44.1718 88.5443 48.1554 88.2528C50.9453 88.0446 53.6657 87.5033 56.3307 86.7816C58.7874 86.1153 61.1193 85.0882 63.4372 84.0056C66.352 82.6314 68.9892 80.8826 71.5015 78.9116C74.1526 76.8157 76.4566 74.4145 78.5664 71.7773C81.9947 67.5162 84.4237 62.6998 86.0199 57.5087C86.9638 54.4412 87.5606 51.2627 87.7133 48.0148C87.7827 46.6407 87.9354 45.2666 87.866 43.8925C87.6578 40.1587 87.1997 36.4806 86.0893 32.8718C85.2843 30.2623 84.3405 27.7223 83.1468 25.3072C81.967 22.906 80.5373 20.6296 78.8023 18.5615C78.5941 18.3117 78.3998 18.0618 78.4415 17.7148C80.9399 19.7552 82.9941 22.2258 84.854 24.8353C89.0041 30.6649 91.5442 37.1746 92.4464 44.2672C93.4596 52.2343 92.4602 59.9793 89.1568 67.3218C84.1461 78.4675 75.957 86.4901 64.4227 90.5985C49.3352 95.9701 35.2609 93.666 22.4497 84.0056C20.9507 82.8674 19.4794 81.6737 18.3135 80.1747L18.2857 80.133Z" fill="#A0491D"/>
<path d="M36.5784 46.1249C36.5822 46.1249 36.5853 46.1218 36.5853 46.118C36.5853 40.9847 36.5853 35.8514 36.5853 30.7181C36.5853 29.691 36.5992 29.6771 37.5014 30.2046C46.4956 35.3957 55.5037 40.6007 64.4979 45.7779C65.1364 46.1388 65.1364 46.3192 64.4979 46.6801C55.462 51.8712 46.4401 57.0901 37.4181 62.3089C36.7241 62.7115 36.5714 62.5865 36.5714 61.8231C36.5853 56.5927 36.5714 51.3623 36.5714 46.1318C36.5714 46.128 36.5745 46.1249 36.5784 46.1249Z" fill="white"/>
<path d="M70.7755 17.9307C70.831 20.4707 68.8046 22.7054 66.4033 22.7748C63.6551 22.8442 61.4343 20.8871 61.3371 18.361C61.2261 15.5572 63.5579 13.4058 65.751 13.3364C68.4992 13.2532 70.7061 15.2935 70.7755 17.9307Z" fill="#FFFFFD"/>
<path d="M72.7778 25.6119C71.5702 25.6119 70.6264 24.6403 70.668 23.3773C70.6958 22.4473 71.4175 21.2675 72.8333 21.3369C74.027 21.3924 74.9153 22.2252 74.9153 23.3911C74.9153 24.6542 73.9853 25.6119 72.7778 25.6119Z" fill="#FEFDF6"/>
</g>
<defs>
<clipPath id="clip0_40_3345">
<rect width="108" height="108" fill="white"/>
</clipPath>
</defs>
</svg>
