<svg width="187" height="218" viewBox="0 0 187 218" fill="none" xmlns="http://www.w3.org/2000/svg">
<path d="M110.521 219.624C83.8706 211.935 35.2967 183.218 54.2018 129.86C73.107 76.5024 31.5975 59.0443 8.47955 56.985" stroke="#0DB1B2" stroke-width="10" stroke-linecap="round"/>
<path d="M42 236.783C68.4118 212.983 105.388 155.268 42 114.808C-21.3884 74.3482 15.5882 31.9332 42 15.7832" stroke="#0DB1B2" stroke-width="10" stroke-linecap="round"/>
<path d="M77 242.783C50.5882 221.783 13.6116 170.858 77 135.158C140.388 99.4582 103.412 62.0332 77 47.7832" stroke="#0DB1B2" stroke-width="10" stroke-linecap="round"/>
<path d="M113 223.783C98.6622 207.845 78.5892 169.194 113 142.099C147.411 115.003 127.338 86.5986 113 75.7832" stroke="#0DB1B2" stroke-width="10" stroke-linecap="round"/>
<path d="M89.7435 222.906C118.991 202.984 163.21 151.04 106.105 102.64C49.0011 54.2391 91.1676 17.3809 119.389 5.00187" stroke="#0DB1B2" stroke-width="10" stroke-linecap="round"/>
<path d="M147 230.783C120.588 209.783 83.6116 158.858 147 123.158C210.388 87.4582 173.412 50.0332 147 35.7832" stroke="#0DB1B2" stroke-width="10" stroke-linecap="round"/>
</svg>
