<svg width="202" height="407" viewBox="0 0 202 407" fill="none" xmlns="http://www.w3.org/2000/svg">
<path d="M184.623 94.3537C182.79 81.5204 183.923 56.7537 203.123 60.3537C222.323 63.9537 198.79 84.5204 184.623 94.3537Z" fill="#0DB1B2"/>
<path d="M184.623 94.3537C182.79 81.5204 183.923 56.7537 203.123 60.3537C222.323 63.9537 198.79 84.5204 184.623 94.3537Z" fill="#0DB1B2"/>
<path d="M144.623 271.354C142.79 258.52 143.923 233.754 163.123 237.354C182.323 240.954 158.79 261.52 144.623 271.354Z" fill="#0DB1B2"/>
<path d="M28.8823 128.483C20.1388 126.187 2.88727 124.66 3.8295 136.918C4.77173 149.176 20.924 136.402 28.8823 128.483Z" fill="#0DB1B2"/>
<path d="M25.8823 112.483C17.1388 110.187 -0.112729 108.66 0.829503 120.918C1.77173 133.176 17.924 120.402 25.8823 112.483Z" fill="#0DB1B2"/>
<path d="M57.8823 277.483C49.1388 275.187 31.8873 273.66 32.8295 285.918C33.7717 298.176 49.924 285.402 57.8823 277.483Z" fill="#0DB1B2"/>
<path d="M96.5471 144.453C101.087 132.31 113.948 111.114 129.076 123.473C144.204 135.832 113.693 142.609 96.5471 144.453Z" fill="#0DB1B2"/>
<path d="M33.6566 138.727C30.3691 147.148 21.4546 161.996 12.0969 154.023C2.73912 146.049 22.571 140.503 33.6566 138.727Z" fill="#0DB1B2"/>
<path d="M137.547 293.453C142.087 281.31 154.948 260.114 170.076 272.473C185.204 284.832 154.693 291.609 137.547 293.453Z" fill="#0DB1B2"/>
<path d="M78.9999 391C54.0974 363 19.2338 295.1 78.9999 247.5C138.766 199.9 103.903 150 78.9999 131" stroke="#0DB1B2" stroke-width="10" stroke-linecap="round"/>
<path d="M78.4997 391C124.909 349.431 189.882 248.625 78.4997 177.958C-32.8827 107.29 32.0904 33.2077 78.4997 5" stroke="#0DB1B2" stroke-width="10" stroke-linecap="round"/>
<path d="M139.5 402C93.0906 365.169 28.1175 275.855 139.5 213.242C250.882 150.63 185.909 84.9923 139.5 60" stroke="#0DB1B2" stroke-width="10" stroke-linecap="round"/>
</svg>
