<svg width="291" height="231" viewBox="0 0 291 231" fill="none" xmlns="http://www.w3.org/2000/svg">
<path d="M40 412C15.0974 384 -19.7662 316.1 40 268.5C99.7662 220.9 64.9026 171 40 152" stroke="#0DB1B2" stroke-width="10" stroke-linecap="round"/>
<path d="M39.5 412C85.9093 370.431 150.882 269.625 39.5 198.958C-71.8824 128.29 -6.90934 54.2077 39.5 26" stroke="#0DB1B2" stroke-width="10" stroke-linecap="round"/>
<path d="M100.5 423C54.0907 386.169 -10.8824 296.855 100.5 234.242C211.882 171.63 146.909 105.992 100.5 81" stroke="#107B7C" stroke-width="10" stroke-linecap="round"/>
<path d="M163 391C138.097 363 103.234 295.1 163 247.5C222.766 199.9 187.903 150 163 131" stroke="#0DB1B2" stroke-width="10" stroke-linecap="round"/>
<path d="M162.5 391C208.909 349.431 273.882 248.625 162.5 177.958C51.1176 107.29 116.091 33.2077 162.5 5" stroke="#0DB1B2" stroke-width="10" stroke-linecap="round"/>
<path d="M224.5 402C178.091 365.169 113.118 275.855 224.5 213.242C335.882 150.63 270.909 84.9923 224.5 60" stroke="#107B7C" stroke-width="10" stroke-linecap="round"/>
<path d="M216.5 402C176.128 365.169 119.606 275.855 216.5 213.242C313.394 150.63 249.872 106.492 209.5 81.5" stroke="#21CBCC" stroke-width="10" stroke-linecap="round"/>
<path d="M220.5 395.5C180.128 358.669 123.606 269.355 220.5 206.742C317.394 144.13 230 140 272.5 49" stroke="#0DB1B2" stroke-width="10" stroke-linecap="round"/>
<path d="M50.6234 165.354C48.7901 152.52 49.9234 127.754 69.1234 131.354C88.3234 134.954 64.7901 155.52 50.6234 165.354Z" fill="#0DB1B2"/>
<path d="M278.526 163.405C266.218 167.166 241.918 171.992 243.189 161.203C244.461 150.414 267.277 158.175 278.526 163.405Z" fill="#107B7C"/>
<path d="M144.009 202.995C135.96 202.499 121.013 198.695 125.619 187.45C130.226 176.204 139.798 193.128 144.009 202.995Z" fill="#107B7C"/>
<path d="M59.9283 178.24C64.4679 166.097 77.329 144.901 92.4569 157.26C107.585 169.619 77.0744 176.396 59.9283 178.24Z" fill="#0DB1B2"/>
<path d="M69.5472 202.453C74.0868 190.31 86.9479 169.114 102.076 181.473C117.204 193.832 86.6933 200.609 69.5472 202.453Z" fill="#0DB1B2"/>
<path d="M63.6568 177.727C60.3693 186.148 51.4548 200.996 42.097 193.023C32.7393 185.049 52.5712 179.503 63.6568 177.727Z" fill="#0DB1B2"/>
<path d="M53.8825 165.483C45.139 163.187 27.8875 161.66 28.8297 173.918C29.7719 186.176 45.9242 173.402 53.8825 165.483Z" fill="#0DB1B2"/>
</svg>
