<svg width="245" height="288" viewBox="0 0 245 288" fill="none" xmlns="http://www.w3.org/2000/svg">
<path d="M110.521 290.089C83.8706 282.4 35.2967 253.682 54.2018 200.325C73.107 146.967 31.5975 129.509 8.47955 127.45" stroke="#0DB1B2" stroke-width="10" stroke-linecap="round"/>
<path d="M59.5 304.77C93.8354 274.077 141.905 199.648 59.5 147.471C-22.9049 95.2945 25.1646 40.5965 59.5 19.7695" stroke="#0DB1B2" stroke-width="10" stroke-linecap="round"/>
<path d="M104.5 312.77C70.1646 285.631 22.0951 219.82 104.5 173.685C186.905 127.55 138.835 79.1849 104.5 60.7695" stroke="#0DB1B2" stroke-width="10" stroke-linecap="round"/>
<path d="M150.5 288.77C132.012 268.2 106.128 218.32 150.5 183.352C194.872 148.385 168.988 111.727 150.5 97.7695" stroke="#0DB1B2" stroke-width="10" stroke-linecap="round"/>
<path d="M120.858 287.474C158.629 261.746 215.735 194.665 141.989 132.159C68.2422 69.6529 122.697 22.0532 159.143 6.06653" stroke="#0DB1B2" stroke-width="10" stroke-linecap="round"/>
<path d="M195 297.77C161.042 270.631 113.501 204.82 195 158.685C276.499 112.55 228.958 64.1849 195 45.7695" stroke="#0DB1B2" stroke-width="10" stroke-linecap="round"/>
</svg>
