<svg width="160" height="186" viewBox="0 0 160 186" fill="none" xmlns="http://www.w3.org/2000/svg">
<path d="M34.9996 331C22.9256 308.6 6.02208 254.28 34.9996 216.2C63.9772 178.12 47.0736 138.2 34.9996 123" stroke="#0DB1B2" stroke-width="10" stroke-linecap="round"/>
<path d="M34.9996 331C57.6383 297.723 89.3325 217.027 34.9996 160.456C-19.3333 103.885 12.3609 44.5808 34.9996 22" stroke="#0DB1B2" stroke-width="10" stroke-linecap="round"/>
<path d="M64.9996 339C42.3609 309.492 10.6667 237.936 64.9996 187.773C119.333 137.61 87.6383 85.0231 64.9996 65" stroke="#0DB1B2" stroke-width="10" stroke-linecap="round"/>
<path d="M95.4996 314C83.803 291.6 67.4276 237.28 95.4996 199.2C123.572 161.12 107.196 121.2 95.4996 106" stroke="#0DB1B2" stroke-width="10" stroke-linecap="round"/>
<path d="M94.9996 314C117.638 280.723 149.333 200.027 94.9996 143.456C40.6667 86.885 72.3609 27.5808 94.9996 5" stroke="#0DB1B2" stroke-width="10" stroke-linecap="round"/>
<path d="M125 323C102.361 293.492 70.6667 221.936 125 171.773C179.333 121.61 147.638 69.0231 125 49" stroke="#0DB1B2" stroke-width="10" stroke-linecap="round"/>
</svg>
