<svg width="37" height="39" viewBox="0 0 37 39" fill="none" xmlns="http://www.w3.org/2000/svg">
<path fill-rule="evenodd" clip-rule="evenodd" d="M18.4068 12.6602C16.608 12.6602 14.8828 13.3747 13.6109 14.6467C12.3389 15.9186 11.6243 17.6438 11.6243 19.4426C11.6243 21.2414 12.3389 22.9665 13.6109 24.2385C14.8828 25.5105 16.608 26.225 18.4068 26.225C20.2056 26.225 21.9307 25.5105 23.2027 24.2385C24.4746 22.9665 25.1892 21.2414 25.1892 19.4426C25.1892 17.6438 24.4746 15.9186 23.2027 14.6467C21.9307 13.3747 20.2056 12.6602 18.4068 12.6602ZM14.3373 19.4426C14.3373 18.3633 14.766 17.3282 15.5292 16.565C16.2924 15.8019 17.3275 15.3731 18.4068 15.3731C19.4861 15.3731 20.5211 15.8019 21.2843 16.565C22.0475 17.3282 22.4762 18.3633 22.4762 19.4426C22.4762 20.5219 22.0475 21.557 21.2843 22.3201C20.5211 23.0833 19.4861 23.5121 18.4068 23.5121C17.3275 23.5121 16.2924 23.0833 15.5292 22.3201C14.766 21.557 14.3373 20.5219 14.3373 19.4426Z" fill="white"/>
<path fill-rule="evenodd" clip-rule="evenodd" d="M18.3641 0C17.5592 0 16.8882 -3.36887e-08 16.3384 0.036173C15.7763 0.0588107 15.2219 0.174949 14.698 0.379817C14.0943 0.629572 13.5458 0.995794 13.0837 1.45757C12.6216 1.91934 12.255 2.46762 12.0049 3.07109C11.7426 3.70411 11.6721 4.37332 11.6432 5.10039C11.6399 5.36623 11.5694 5.62692 11.4381 5.85812C11.3069 6.08932 11.1192 6.28349 10.8926 6.42251C10.6589 6.5497 10.3969 6.61558 10.1309 6.614C9.86486 6.61242 9.6036 6.54343 9.37149 6.41347C8.72761 6.07345 8.11267 5.80034 7.43262 5.70991C6.78502 5.62472 6.12699 5.66793 5.49609 5.83706C4.86519 6.00619 4.27378 6.29793 3.75564 6.69562C3.31684 7.04736 2.9397 7.46973 2.6397 7.9454C2.33223 8.4048 1.99582 8.98537 1.5943 9.6817L1.54908 9.76128C1.14575 10.4576 0.811153 11.0382 0.568794 11.5338C0.315583 12.051 0.116632 12.5611 0.0442861 13.1254C-0.128259 14.433 0.225657 15.7556 1.02819 16.8024C1.44599 17.3468 1.99039 17.7429 2.60533 18.1299C2.83437 18.2657 3.0252 18.4574 3.15995 18.6871C3.29471 18.9167 3.36898 19.1768 3.37582 19.443C3.36898 19.7092 3.29471 19.9693 3.15995 20.1989C3.0252 20.4286 2.83437 20.6203 2.60533 20.7561C1.99039 21.1431 1.4478 21.5392 1.02819 22.0836C0.6305 22.6018 0.33876 23.1932 0.169631 23.8241C0.000501787 24.455 -0.042705 25.113 0.0424776 25.7606C0.116632 26.3249 0.313775 26.8349 0.566986 27.3522C0.811154 27.8478 1.14575 28.4284 1.54908 29.1247L1.5943 29.2043C1.99582 29.9006 2.33223 30.4812 2.6397 30.9406C2.95983 31.4162 3.30347 31.8449 3.75564 32.1885C4.27365 32.5865 4.86499 32.8786 5.4959 33.0481C6.1268 33.2175 6.7849 33.261 7.43262 33.1761C8.11267 33.0856 8.72761 32.8143 9.37149 32.4725C9.60338 32.3429 9.86431 32.274 10.13 32.2725C10.3956 32.2709 10.6573 32.3366 10.8908 32.4635C11.1192 32.6007 11.3086 32.7944 11.4406 33.026C11.5727 33.2575 11.6431 33.519 11.645 33.7856C11.6721 34.5127 11.7426 35.1819 12.0067 35.8149C12.2564 36.4185 12.6227 36.967 13.0844 37.4291C13.5462 37.8912 14.0945 38.2578 14.698 38.508C15.2225 38.725 15.7651 38.81 16.3384 38.848C16.8882 38.886 17.5592 38.886 18.3641 38.886H18.4545C19.2594 38.886 19.9304 38.886 20.4802 38.8498C21.0554 38.81 21.5962 38.725 22.1207 38.5062C22.7243 38.2564 23.2728 37.8902 23.7349 37.4284C24.197 36.9666 24.5636 36.4184 24.8137 35.8149C25.076 35.1819 25.1465 34.5127 25.1755 33.7856C25.1784 33.5194 25.2488 33.2584 25.3801 33.0268C25.5113 32.7953 25.6992 32.6008 25.9261 32.4616C26.1598 32.3347 26.422 32.2692 26.688 32.2711C26.954 32.273 27.2152 32.3423 27.4471 32.4725C28.091 32.8125 28.706 33.0856 29.386 33.1743C30.6936 33.3468 32.0163 32.9929 33.063 32.1903C33.5152 31.8431 33.8588 31.4162 34.1789 30.9406C34.4864 30.4812 34.8228 29.9006 35.2243 29.2043L35.2695 29.1247C35.6729 28.4284 36.0075 27.8478 36.2498 27.3522C36.503 26.8349 36.702 26.3231 36.7743 25.7606C36.9469 24.453 36.593 23.1303 35.7904 22.0836C35.3726 21.5392 34.8282 21.1431 34.2133 20.7561C33.9843 20.6203 33.7934 20.4286 33.6587 20.1989C33.5239 19.9693 33.4496 19.7092 33.4428 19.443C33.4428 18.9402 33.7177 18.441 34.2133 18.1299C34.8282 17.7429 35.3708 17.3468 35.7904 16.8024C36.1881 16.2842 36.4799 15.6928 36.649 15.0619C36.8181 14.431 36.8613 13.773 36.7761 13.1254C36.6909 12.5694 36.5137 12.0315 36.2516 11.5338C35.9427 10.9329 35.6152 10.3418 35.2695 9.76128L35.2243 9.6817C34.894 9.09223 34.5453 8.51318 34.1789 7.9454C33.8788 7.47038 33.5016 7.04863 33.063 6.69743C32.545 6.29942 31.9536 6.00736 31.3227 5.83792C30.6918 5.66848 30.0337 5.62498 29.386 5.70991C28.706 5.80034 28.091 6.07164 27.4471 6.41347C27.2153 6.54311 26.9543 6.61192 26.6887 6.6135C26.423 6.61508 26.1613 6.54938 25.9279 6.42251C25.7006 6.28393 25.5122 6.08994 25.3803 5.85872C25.2484 5.62749 25.1773 5.36657 25.1737 5.10039C25.1465 4.37332 25.076 3.70411 24.8119 3.07109C24.5622 2.46745 24.196 1.91893 23.7342 1.45684C23.2724 0.994759 22.7241 0.628169 22.1207 0.378008C21.5962 0.16097 21.0536 0.0759633 20.4802 0.0379817C19.9304 5.05331e-08 19.2594 0 18.4545 0H18.3641ZM15.7361 2.8848C15.8754 2.82692 16.087 2.77447 16.5229 2.74372C16.9696 2.71297 17.5484 2.71297 18.4093 2.71297C19.2702 2.71297 19.849 2.71297 20.2957 2.74372C20.7316 2.77447 20.9432 2.82692 21.0825 2.8848C21.6378 3.11449 22.0773 3.554 22.307 4.10925C22.3793 4.28288 22.439 4.55599 22.4625 5.20168C22.5168 6.63413 23.2565 8.01413 24.5696 8.77195C25.8827 9.52977 27.4471 9.48094 28.715 8.81174C29.2865 8.5097 29.5524 8.42469 29.7405 8.40118C30.3348 8.32265 30.9359 8.48334 31.4117 8.84791C31.5311 8.94016 31.683 9.09751 31.9272 9.45924C32.1786 9.83182 32.4679 10.3328 32.8984 11.078C33.3289 11.8231 33.6164 12.3259 33.8136 12.7275C34.0071 13.1199 34.0668 13.3297 34.0849 13.4799C34.1634 14.0741 34.0027 14.6752 33.6381 15.1511C33.5224 15.3012 33.3162 15.4893 32.77 15.8329C31.5546 16.5962 30.7298 17.9273 30.7298 19.443C30.7298 20.9586 31.5546 22.2898 32.77 23.053C33.3162 23.3967 33.5224 23.5848 33.6381 23.7349C34.0035 24.2106 34.1627 24.8111 34.0849 25.4061C34.0668 25.5562 34.0053 25.7678 33.8136 26.1585C33.6164 26.5618 33.3289 27.0628 32.8984 27.808C32.4679 28.5532 32.1768 29.0541 31.9272 29.4267C31.683 29.7885 31.5311 29.9458 31.4117 30.0381C30.9359 30.4026 30.3348 30.5633 29.7405 30.4848C29.5524 30.4613 29.2883 30.3763 28.715 30.0742C27.4489 29.405 25.8827 29.3544 24.5696 30.1122C23.2565 30.87 22.5168 32.2518 22.4625 33.6843C22.439 34.33 22.3793 34.6031 22.307 34.7767C22.1933 35.0513 22.0267 35.3007 21.8166 35.5108C21.6065 35.7209 21.357 35.8876 21.0825 36.0012C20.9432 36.059 20.7316 36.1115 20.2957 36.1422C19.849 36.173 19.2702 36.173 18.4093 36.173C17.5484 36.173 16.9696 36.173 16.5229 36.1422C16.087 36.1115 15.8754 36.059 15.7361 36.0012C15.4616 35.8876 15.2121 35.7209 15.002 35.5108C14.7919 35.3007 14.6253 35.0513 14.5117 34.7767C14.4393 34.6031 14.3796 34.33 14.3561 33.6843C14.3019 32.2518 13.5621 30.8718 12.2491 30.114C10.936 29.3562 9.37149 29.405 8.10363 30.0742C7.5321 30.3763 7.26622 30.4613 7.07812 30.4848C6.48387 30.5633 5.88275 30.4026 5.40693 30.0381C5.28756 29.9458 5.13563 29.7885 4.89147 29.4267C4.55123 28.8972 4.22733 28.3574 3.92022 27.808C3.48976 27.0628 3.20219 26.56 3.00505 26.1585C2.81152 25.766 2.75183 25.5562 2.73375 25.4061C2.65522 24.8118 2.81591 24.2107 3.18048 23.7349C3.29624 23.5848 3.50242 23.3967 4.04864 23.053C5.26405 22.2898 6.08879 20.9586 6.08879 19.443C6.08879 17.9273 5.26405 16.5962 4.04864 15.8329C3.50242 15.4893 3.29624 15.3012 3.18048 15.1511C2.81591 14.6752 2.65522 14.0741 2.73375 13.4799C2.75183 13.3297 2.81333 13.1181 3.00505 12.7275C3.20219 12.3241 3.48976 11.8231 3.92022 11.078C4.35068 10.3328 4.64187 9.83182 4.89147 9.45924C5.13563 9.09751 5.28756 8.94016 5.40693 8.84791C5.88275 8.48334 6.48387 8.32265 7.07812 8.40118C7.26622 8.42469 7.53029 8.5097 8.10363 8.81174C9.36968 9.48094 10.936 9.53158 12.2491 8.77195C13.5621 8.01413 14.3019 6.63413 14.3561 5.20168C14.3796 4.55599 14.4393 4.28288 14.5117 4.10925C14.7414 3.554 15.1809 3.11449 15.7361 2.8848Z" fill="white"/>
</svg>
